<svg width="100" height="100" viewBox="0 0 100 100" fill="none" xmlns="http://www.w3.org/2000/svg">
<g clip-path="url(#clip0_103_2)">
<path d="M45.776 99.904C44.176 99.904 42.64 99.712 41.168 99.328C39.76 98.88 38.64 98.112 37.808 97.024C37.36 96.384 36.688 95.488 35.792 94.336C34.96 93.12 34.544 91.968 34.544 90.88C34.544 90.112 34.736 89.504 35.12 89.056C36.016 87.904 36.72 86.848 37.232 85.888C37.808 84.928 38.384 83.776 38.96 82.432C39.536 81.024 40.24 79.168 41.072 76.864C41.392 76.16 41.648 75.392 41.84 74.56C42.032 73.728 42.416 73.472 42.992 73.792C43.248 73.92 43.248 74.56 42.992 75.712C42.736 76.8 42.544 77.792 42.416 78.688C42.352 79.008 42.32 79.328 42.32 79.648C42.32 79.968 42.32 80.288 42.32 80.608C42.32 83.808 42.96 86.464 44.24 88.576C45.584 90.688 47.28 92.256 49.328 93.28C51.44 94.24 53.68 94.72 56.048 94.72C58.672 94.72 61.232 94.144 63.728 92.992C66.288 91.776 68.432 90.016 70.16 87.712C71.888 85.408 72.88 82.624 73.136 79.36C73.264 77.248 72.848 75.584 71.888 74.368C70.928 73.152 69.616 72.256 67.952 71.68C66.288 71.104 64.432 70.72 62.384 70.528C60.4 70.336 58.416 70.176 56.432 70.048C51.696 69.728 48.112 68.416 45.68 66.112C43.248 63.744 42.128 61.184 42.32 58.432C42.512 55.36 43.696 52.544 45.872 49.984C48.048 47.424 50.768 45.184 54.032 43.264C57.296 41.344 60.752 39.872 64.4 38.848C68.048 37.824 71.472 37.312 74.672 37.312C77.168 37.312 79.376 37.664 81.296 38.368C83.216 39.072 84.624 40.16 85.52 41.632C86.416 43.168 86.864 44.448 86.864 45.472C86.864 46.112 86.704 46.752 86.384 47.392C86.064 47.968 85.584 48.64 84.944 49.408C84.176 50.432 83.504 51.296 82.928 52C82.416 52.704 81.872 53.568 81.296 54.592C80.784 55.552 80.112 56.896 79.28 58.624C78.96 59.328 78.608 59.68 78.224 59.68C77.968 59.68 77.84 59.456 77.84 59.008C77.84 58.624 77.968 58.208 78.224 57.76C78.8 55.904 79.088 54.272 79.088 52.864C79.088 50.496 78.48 48.512 77.264 46.912C76.112 45.248 74.608 44 72.752 43.168C70.896 42.272 68.912 41.824 66.8 41.824C64.624 41.824 62.512 42.304 60.464 43.264C58.48 44.16 56.784 45.6 55.376 47.584C54.032 49.504 53.232 51.968 52.976 54.976C52.848 56.768 53.232 58.208 54.128 59.296C55.024 60.384 56.208 61.216 57.68 61.792C59.216 62.368 60.784 62.784 62.384 63.04C64.048 63.296 65.584 63.456 66.992 63.52C68.4 63.52 69.424 63.552 70.064 63.616C75.248 63.808 78.768 64.768 80.624 66.496C82.544 68.16 83.44 70.176 83.312 72.544C83.056 75.872 81.872 79.168 79.76 82.432C77.712 85.632 74.96 88.576 71.504 91.264C68.048 93.888 64.112 96 59.696 97.6C55.28 99.136 50.64 99.904 45.776 99.904Z" fill="#0A80A5"/>
<path d="M41.376 61.04L27.456 60.464C26.88 60.464 26.272 60.464 25.632 60.464C25.056 60.4 24.448 60.368 23.808 60.368C21.248 60.368 18.656 60.432 16.032 60.56C13.408 60.688 10.784 60.752 8.16 60.752L9.216 59.12C10.304 59.184 11.328 59.248 12.288 59.312C13.248 59.312 14.144 59.312 14.976 59.312C17.344 59.312 19.456 58.928 21.312 58.16C23.232 57.328 25.184 55.504 27.168 52.688C28.256 51.216 29.6 49.2 31.2 46.64C32.8 44.016 34.496 41.232 36.288 38.288C35.328 38.224 34.432 38.192 33.6 38.192C32.768 38.192 31.968 38.192 31.2 38.192C30.112 38.192 28.96 38.224 27.744 38.288C26.528 38.288 25.152 38.352 23.616 38.48H22.56C21.792 38.48 21.408 38.384 21.408 38.192C21.408 37.872 21.856 37.52 22.752 37.136C23.648 36.688 24.352 36.4 24.864 36.272C26.592 35.952 28.544 35.728 30.72 35.6C32.96 35.472 35.456 35.344 38.208 35.216C40.192 31.888 42.112 28.624 43.968 25.424C45.888 22.16 47.552 19.28 48.96 16.784C50.432 14.224 51.456 12.336 52.032 11.12C52.416 10.288 52.736 9.488 52.992 8.72C53.248 7.888 53.376 7.088 53.376 6.32C53.376 5.232 53.024 4.368 52.32 3.72799C51.68 3.024 50.432 2.64 48.576 2.576C47.424 2.576 46.144 2.608 44.736 2.672C43.328 2.736 42.048 2.8 40.896 2.86399L41.472 1.232C43.904 1.36 46.08 1.456 48 1.51999C49.92 1.584 51.584 1.616 52.992 1.616C53.952 1.616 54.816 1.616 55.584 1.616C56.352 1.552 56.992 1.51999 57.504 1.51999C58.912 1.456 60.256 1.424 61.536 1.424C62.816 1.424 64.192 1.392 65.664 1.328C66.368 1.328 66.688 1.776 66.624 2.672C66.624 3.504 66.656 4.592 66.72 5.936C67.296 13.296 67.936 20.4 68.64 27.248C69.408 34.096 70.464 41.136 71.808 48.368C72.448 51.568 73.28 53.968 74.304 55.568C75.328 57.104 76.416 58.128 77.568 58.64C78.784 59.088 79.936 59.312 81.024 59.312C81.472 59.312 81.888 59.312 82.272 59.312C82.656 59.248 83.008 59.216 83.328 59.216L82.464 60.752C81.504 60.688 80.672 60.656 79.968 60.656C79.264 60.656 78.624 60.656 78.048 60.656C76.64 60.656 75.552 60.688 74.784 60.752C74.08 60.816 73.184 60.816 72.096 60.752C68.768 60.56 65.536 60.464 62.4 60.464C59.648 60.464 56.832 60.56 53.952 60.752L54.912 59.216C55.808 59.216 56.896 59.216 58.176 59.216C59.456 59.152 60.576 58.864 61.536 58.352C62.56 57.84 63.072 56.88 63.072 55.472C63.072 53.872 62.944 51.6 62.688 48.656C62.432 45.712 62.08 42.448 61.632 38.864C61.184 35.216 60.704 31.6 60.192 28.016C59.744 24.432 59.296 21.2 58.848 18.32C58.4 15.376 58.016 13.168 57.696 11.696C55.2 15.6 52.768 19.504 50.4 23.408C48.032 27.248 45.696 31.088 43.392 34.928L48.768 34.64C50.24 34.576 51.808 34.448 53.472 34.256C55.136 34 56.608 33.744 57.888 33.488C59.168 33.168 59.968 32.88 60.288 32.624C60.416 32.496 60.544 32.432 60.672 32.432C60.928 32.432 60.896 32.688 60.576 33.2C60.128 34.096 59.264 34.96 57.984 35.792C56.768 36.624 55.712 37.264 54.816 37.712C53.664 38.224 52.48 38.48 51.264 38.48C50.112 38.48 48.896 38.48 47.616 38.48C46.4 38.48 45.28 38.48 44.256 38.48C43.296 38.416 42.368 38.384 41.472 38.384C40.512 40.048 39.584 41.712 38.688 43.376C37.792 45.04 36.896 46.704 36 48.368C35.168 49.968 34.56 51.344 34.176 52.496C33.792 53.648 33.6 54.64 33.6 55.472C33.6 57.2 34.24 58.32 35.52 58.832C36.8 59.28 38.176 59.504 39.648 59.504C40.16 59.504 40.64 59.504 41.088 59.504C41.6 59.44 42.08 59.408 42.528 59.408L41.376 61.04Z" fill="#0A80A5"/>
</g>
<defs>
<clipPath id="clip0_103_2">
<rect width="100" height="100" fill="white"/>
</clipPath>
</defs>
</svg>
